# AST/ASF file generated using VICON BodyLanguage
# -----------------------------------------------
:version 1.10
:name VICON
:units
  mass 1.0
  length 0.45
  angle deg
:documentation
   .ast/.asf automatically generated from VICON data using
   VICON BodyBuilder and BodyLanguage model FoxedUp or BRILLIANT.MOD
:root
   order TX TY TZ RX RY RZ
   axis XYZ
   position 0 0 0  
   orientation 0 0 0 
:bonedata
  begin
     id 1 
     name lhipjoint
     direction 0.682418 -0.694059 0.22932 
     length 2.25561 
     axis 0 0 0  XYZ
  end
  begin
     id 2 
     name lfemur
     direction 0.34202 -0.939693 0  
     length 6.96448  
     axis 0 0 20  XYZ
    dof rx ry rz
    limits (-160.0 20.0)
           (-70.0 70.0)
           (-60.0 70.0)
  end
  begin
     id 3 
     name ltibia
     direction 0.34202 -0.939693 0   
     length 6.88553   
     axis 0 0 20   XYZ
    dof rx
    limits (-10.0 170.0)
  end
  begin
     id 4 
     name lfoot
     direction 0.0723587 -0.198804 0.977364   
     length 1.88518   
     axis -90 7.62852e-016 20   XYZ
    dof rx rz
    limits (-45.0 90.0)
           (-70.0 20.0)
  end
  begin
     id 5 
     name ltoes
     direction 1.53558e-011 -4.21962e-011 1   
     length 0.952124   
     axis -90 7.62852e-016 20   XYZ
    dof rx
    limits (-90.0 20.0)
  end
  begin
     id 6 
     name rhipjoint
     direction -0.657603 -0.71533 0.236348   
     length 2.18854  
     axis 0 0 0  XYZ 
  end
  begin
     id 7 
     name rfemur
     direction -0.34202 -0.939693 0   
     length 6.86686   
     axis 0 0 -20   XYZ
    dof rx ry rz
    limits (-160.0 20.0)
           (-70.0 70.0)
           (-70.0 60.0)
  end
  begin
     id 8 
     name rtibia
     direction -0.34202 -0.939693 0   
     length 6.59503   
     axis 0 0 -20   XYZ
    dof rx
    limits (-10.0 170.0)
 end
 begin
     id 9 
     name rfoot
     direction -0.101977 -0.280179 0.954516   
     length 1.93723  
     axis -90 -7.62852e-016 -20   XYZ
    dof rx rz
    limits (-45.0 90.0)
           (-20.0 70.0)
  end
  begin
     id 10 
     name rtoes
     direction -1.53564e-011 -4.21897e-011 1   
     length 0.970315   
     axis -90 -7.62852e-016 -20   XYZ
    dof rx
    limits (-90.0 20.0)
  end
  begin
     id 11 
     name lowerback
     direction -0.0339559 0.999421 -0.00235966   
     length 1.88543   
     axis 0 0 0   XYZ
    dof rx ry rz
    limits (-20.0 45.0)
           (-30.0 30.0)
           (-30.0 30.0)
  end
  begin
     id 12 
     name upperback
     direction 0.00401003 0.999739 0.0224689   
     length 1.8856   
     axis 0 0 0   XYZ
    dof rx ry rz
    limits (-20.0 45.0)
           (-30.0 30.0)
           (-30.0 30.0)
  end
  begin
     id 13 
     name thorax
     direction 0.0198619 0.999546 0.0226536   
     length 1.88352   
     axis 0 0 0   XYZ
    dof rx ry rz
    limits (-20.0 45.0)
           (-30.0 30.0)
           (-30.0 30.0)
  end
  begin
     id 14 
     name lowerneck
     direction -0.0461848 0.998632 0.0245198   
     length 1.34895   
     axis 0 0 0   XYZ
    dof rx ry rz
    limits (-20.0 45.0)
           (-30.0 30.0)
           (-30.0 30.0)
  end
  begin
     id 15 
     name upperneck
     direction -0.0180627 0.994724 -0.100984   
     length 1.35214   
     axis 0 0 0   XYZ
    dof rx ry rz
    limits (-20.0 45.0)
           (-30.0 30.0)
           (-30.0 30.0)
  end
  begin
     id 16
     name head
     direction -0.00374772 0.999293 -0.037403  
     length 1.3568  
     axis 0 0 0   XYZ
    dof rx ry rz
    limits (-20.0 45.0)
           (-30.0 30.0)
           (-30.0 30.0)
  end
  begin
     id 17 
     name lclavicle
     direction 0.971773 0.191119 0.138311  
     length 2.84954  
     axis 0 0 0   XYZ
    dof ry rz
    limits (-20.0 10.0)
           (0.0 20.0)
  end
  begin
     id 18 
     name lhumerus
     direction 1 -4.4897e-011 -2.43761e-027   
     length 4.40919   
     axis 180 -30 -90   XYZ
    dof rx ry rz
    limits (-60.0 90.0)
           (-90.0 90.0)
           (-90.0 90.0)
  end
  begin
     id 19
     name lradius
     direction 1 -4.4896e-011 -9.1621e-027   
     length 3.03857   
     axis 180 -30 -90   XYZ
    dof rx
    limits (-10.0 170.0)
  end
  begin
     id 20
     name lwrist
     direction 1 -4.4896e-011 -1.41363e-026   
     length 1.51928   
     axis 1.07133e-014 90 90   XYZ
    dof ry
    limits (-180.0 0.0)
 end
  begin
     id 21 
     name lhand
     direction 1 -4.48978e-011 -2.82725e-026   
     length 0.523208   
     axis 1.80403e-014 90 90   XYZ
    dof rx rz
    limits (-90.0 90.0)
           (-45.0 45.0)
  end
  begin
     id 22 
     name lfingers
     direction 1 -4.48977e-011 -5.6545e-026   
     length 0.421824   
     axis 3.60806e-014 90 90   XYZ
    dof rx
    limits (0.0 90.0)
  end
  begin
     id 23
     name lthumb
     direction 0.707107 -6.34962e-011 0.707107   
     length 0.605657   
     axis -90 45 2.85299e-015   XYZ
    dof rx rz
    limits (-45.0 45.0)
           (-45.0 45.0)
  end
  begin
     id 24 
     name rclavicle
     direction -0.957247 0.24311 0.156766   
     length 3.12406  
     axis 0 0 0   XYZ 
    dof ry rz
    limits (-10.0 20.0)
           (-20.0 0.0)
  end
  begin
     id 25 
     name rhumerus
     direction -1 -4.48964e-011 -1.70632e-027  
     length 4.61969   
     axis 180 30 90   XYZ
    dof rx ry rz
    limits (-90.0 60.0)
           (-90.0 90.0)
           (-90.0 90.0)
  end
  begin
     id 26 
     name rradius
     direction -1 -4.48966e-011 -6.60395e-027   
     length 3.09382   
     axis 180 30 90   XYZ
    dof rx
    limits (-10.0 170.0)
  end
  begin
     id 27 
     name rwrist
     direction -1 -4.48963e-011 -1.41363e-026   
     length 1.54691   
     axis 1.07133e-014 -90 -90   XYZ
    dof ry
    limits (-180.0 0.0)
  end
  begin
     id 28
     name rhand
     direction -1 -4.49013e-011 -2.82725e-026   
     length 0.500896   
     axis 1.80403e-014 -90 -90   XYZ
    dof rx rz
    limits (-90.0 90.0)
           (-45.0 45.0)
  end
  begin
     id 29
     name rfingers
     direction -1 -4.48902e-011 -5.6545e-026   
     length 0.403835   
     axis 3.60806e-014 -90 -90   XYZ
    dof rx
    limits (0.0 90.0)
  end
  begin
     id 30
     name rthumb
     direction -0.707107 -6.34953e-011 0.707107   
     length 0.579829   
     axis -90 -45 -2.85299e-015   XYZ
    dof rx rz
    limits (-45.0 45.0)
           (-45.0 45.0)
  end
:hierarchy
  begin
    root lhipjoint rhipjoint lowerback
    lhipjoint lfemur
    lfemur ltibia
    ltibia lfoot
    lfoot ltoes
    rhipjoint rfemur
    rfemur rtibia
    rtibia rfoot
    rfoot rtoes
    lowerback upperback
    upperback thorax
    thorax lowerneck lclavicle rclavicle
    lowerneck upperneck
    upperneck head
    lclavicle lhumerus
    lhumerus lradius
    lradius lwrist
    lwrist lhand lthumb
    lhand lfingers
    rclavicle rhumerus
    rhumerus rradius
    rradius rwrist
    rwrist rhand rthumb
    rhand rfingers
  end

#!OML:ASF E:\madness\Project 1\Capture day 1\Session 1\Female1.ASF
:FULLY-SPECIFIED
:DEGREES
609
root 18.6631 15.1781 -0.282971 449.348 -83.1833 -438.247
lowerback 19.8051 -0.734415 -6.39107
upperback 3.4059 -2.32311 2.15235
thorax -7.0261 -1.04591 6.59511
lowerneck 2.61394 1.70028 2.44786
upperneck -32.7981 -0.167887 -4.34658
head -10.9728 -0.550258 -1.8812
rclavicle 6.95746e-014 2.38542e-015
rhumerus -25.6342 -45.7744 4.65195
rradius 148.523
rwrist -25.7639
rhand -33.4945 -45.5942
rfingers 7.12502
rthumb -6.69164 -75.4685
lclavicle 6.95746e-014 2.38542e-015
lhumerus 14.2318 8.00944 20.9201
lradius 143.823
lwrist -24.0042
lhand -41.2181 -71.0573
lfingers 7.12502
lthumb -14.1418 -41.5586
rfemur -49.8195 8.65362 5.89238
rtibia 89.5974
rfoot -15.6051 -6.77447
rtoes -0.617465
lfemur -38.9204 -10.2172 -8.79717
ltibia 55.5326
lfoot -19.8522 21.7515
ltoes 6.75081
610
root 18.6831 15.1911 -0.296147 442.779 -83.0823 -431.791
lowerback 19.7866 -0.909958 -6.27062
upperback 3.45247 -2.52552 2.15777
thorax -6.9387 -1.15208 6.5774
lowerneck 1.56221 1.82632 2.30208
upperneck -30.7942 0.273083 -4.09327
head -9.98351 -0.302454 -1.7746
rclavicle 3.61788e-014 -3.18055e-014
rhumerus -26.0045 -45.8617 4.69517
rradius 148.403
rwrist -25.8854
rhand -33.7849 -45.6401
rfingers 7.12502
rthumb -6.97195 -75.5053
lclavicle 3.61788e-014 -3.18055e-014
lhumerus 15.0656 6.90301 21.1285
lradius 143.876
lwrist -23.7875
lhand -41.5031 -70.8587
lfingers 7.12502
lthumb -14.4164 -41.3794
rfemur -50.2036 7.24876 6.28381
rtibia 93.3073
rfoot -14.8509 -6.67194
rtoes 1.11108
lfemur -38.9976 -10.7249 -8.76839
ltibia 55.3104
lfoot -19.2183 21.9361
ltoes 6.18515
611
root 18.7105 15.1928 -0.310812 435.852 -82.836 -424.835
lowerback 19.7183 -1.13416 -6.04686
upperback 3.47927 -2.76702 2.14733
thorax -6.84698 -1.27827 6.48929
lowerneck 0.744042 2.00194 2.23391
upperneck -29.18 0.746491 -3.82112
head -9.22197 -0.0569766 -1.68273
rclavicle -5.1684e-015 -2.38542e-014
rhumerus -26.4837 -46.1589 4.77773
rradius 148.36
rwrist -26.0747
rhand -33.4566 -45.8298
rfingers 7.12502
rthumb -6.65503 -75.7053
lclavicle -5.1684e-015 -2.38542e-014
lhumerus 15.6849 5.62395 21.223
lradius 143.497
lwrist -25.3952
lhand -42.5009 -70.6041
lfingers 7.12502
lthumb -15.3777 -41.196
rfemur -50.886 5.60805 6.57125
rtibia 97.0199
rfoot -13.9 -6.71873
rtoes 4.03256
lfemur -39.3654 -11.2733 -8.64976
ltibia 55.1439
lfoot -18.6522 21.9069
ltoes 5.80758
612
root 18.7362 15.1899 -0.325866 430.113 -82.4594 -419.069
lowerback 19.6712 -1.35112 -5.77771
upperback 3.52758 -2.9894 2.17941
thorax -6.74783 -1.39743 6.41711
lowerneck 0.140753 2.2519 1.8325
upperneck -27.8526 1.31533 -3.32743
head -8.63024 0.245242 -1.46766
rclavicle 3.57812e-014 -7.15625e-015
rhumerus -26.8865 -46.4134 4.87024
rradius 148.376
rwrist -26.192
rhand -33.1084 -45.9667
rfingers 7.12502
rthumb -6.31888 -75.8525
lclavicle 3.57812e-014 -7.15625e-015
lhumerus 16.1514 4.32811 21.3637
lradius 142.88
lwrist -28.2138
lhand -43.4681 -70.5512
lfingers 7.12502
lthumb -16.3091 -41.217
rfemur -51.6359 4.03575 6.81609
rtibia 100.61
rfoot -12.8863 -7.20877
rtoes 6.59653
lfemur -39.721 -11.7195 -8.47253
ltibia 55.032
lfoot -18.4017 21.7252
ltoes 5.74474
613
root 18.7548 15.1946 -0.339561 426.051 -82.0699 -415.168
lowerback 19.7525 -1.46182 -5.5347
upperback 3.51921 -3.07986 2.28759
thorax -6.79403 -1.44316 6.42287
lowerneck -0.325771 2.3971 1.2178
upperneck -26.1844 1.7553 -2.77368
head -7.97282 0.517331 -1.18705
rclavicle -4.29375e-014 3.18055e-015
rhumerus -27.3979 -46.4414 5.41428
rradius 148.536
rwrist -26.8801
rhand -33.0943 -46.1252
rfingers 7.12502
rthumb -6.3053 -76.0113
lclavicle -4.29375e-014 3.18055e-015
lhumerus 17.0643 2.47315 21.7308
lradius 142.767
lwrist -28.8364
lhand -37.677 -65.0504
lfingers 7.12502
lthumb -10.7277 -35.3443
rfemur -52.1573 2.50365 7.04306
rtibia 103.982
rfoot -11.8834 -7.86955
rtoes 7.5761
lfemur -39.7795 -12.0062 -8.34987
ltibia 54.9472
lfoot -18.0894 21.6711
ltoes 5.56359
